<svg xmlns="http://www.w3.org/2000/svg" width="50" height="49.906" viewBox="0 0 50 49.906"><path d="M22.818,4.4A20.759,20.759,0,1,0,45.741,22.893,21.228,21.228,0,0,0,38.034,8.8,20.208,20.208,0,0,0,25.021,4.3a16.991,16.991,0,0,0-2.2.1" transform="translate(0.009 -0.012)" fill="#fff"/><path d="M16.408,19.5l-5-4.1a16.931,16.931,0,0,0-3,10.2l6.406-.7a11.313,11.313,0,0,1,1.6-5.4" transform="translate(0.014 -0.016)" fill="#046eab" opacity="0.4"/><path d="M30.606,16.3l4.1-5a16.988,16.988,0,0,0-10.21-3l.7,6.5a9.083,9.083,0,0,1,5.405,1.5" transform="translate(0.03 -0.013)" fill="#046eab" opacity="0.8"/><path d="M22.81,15l-.7-6.5A15.982,15.982,0,0,0,12.8,13.6l5,4.1a10.272,10.272,0,0,1,5-2.7" transform="translate(0.018 -0.013)" fill="#046eab" opacity="0.6"/><path d="M15.106,27.2,8.6,27.9a16.514,16.514,0,0,0,5.105,9.4l4.1-5a11.471,11.471,0,0,1-2.7-5.1" transform="translate(0.014 -0.021)" fill="#046eab" opacity="0.25"/><path d="M49.835,22.37A24.617,24.617,0,0,0,40.526,5.5a21.148,21.148,0,0,0-3.1-2.1l-2,3.794c.8.5,1.6,1,2.4,1.6A20.721,20.721,0,0,1,27.013,45.632a19.7,19.7,0,0,1-10.711-1.8l-2,3.794A25.1,25.1,0,0,0,47.533,35.548a24.02,24.02,0,0,0,2.3-13.179" transform="translate(0.02 -0.049)" fill="#1590cf"/><path d="M11.912,41.084A20.713,20.713,0,0,1,35.535,7.2l2-3.8A24.877,24.877,0,0,0,5.606,9.3h0a24.9,24.9,0,0,0,3.6,35.086,26.209,26.209,0,0,0,5.305,3.3l2-3.8a19.541,19.541,0,0,1-4.6-2.8" transform="translate(0.005 -0.01)" fill="#fff"/><path d="M11.912,41.084A20.713,20.713,0,0,1,35.535,7.2l2-3.8A24.877,24.877,0,0,0,5.606,9.3h0a24.9,24.9,0,0,0,3.6,35.086,26.209,26.209,0,0,0,5.305,3.3l2-3.8a19.541,19.541,0,0,1-4.6-2.8" transform="translate(0.005 -0.01)" fill="#59b4d9"/><path d="M36.4,12.6l-4.1,5A10.763,10.763,0,0,1,34.6,21h6.807A17.37,17.37,0,0,0,36.4,12.6Z" transform="translate(0.038 -0.015)" fill="#046eab"/><path d="M23.1,27a2.949,2.949,0,0,1,2.1-5,3.233,3.233,0,0,1,2.1.8H42.22a2.1,2.1,0,1,1,0,4.2H27a2.737,2.737,0,0,1-1.9.8,2.178,2.178,0,0,1-2-.8" transform="translate(0.028 -0.019)" fill="#19457a"/></svg>