<svg xmlns="http://www.w3.org/2000/svg" width="45" height="44.86" viewBox="0 0 45 44.86"><g transform="translate(0)"><g transform="translate(17.791 6.006)"><g transform="translate(0 0)"><rect width="17.245" height="2.243" transform="translate(9.918 15.398) rotate(-125.106)" fill="#59b4d9"/></g></g><g transform="translate(27.768 20.222)"><g transform="translate(0 0)"><rect width="17.665" height="2.243" transform="translate(8.776 16.446) rotate(-119.788)" fill="#59b4d9"/></g></g><g transform="translate(7.101 19.793)"><g transform="translate(0 0)"><rect width="2.243" height="21.451" transform="translate(0.186 4.011) rotate(-94.747)" fill="#59b4d9"/></g></g><g transform="translate(20.153 20.366)"><g transform="translate(0 0)"><rect width="2.243" height="14.581" transform="translate(1.921 13.646) rotate(-148.928)" fill="#59b4d9"/></g></g><g transform="translate(32.241)"><path d="M-748.043,985H-759.4c-.421,0-.7.28-.7.841v4.066a.662.662,0,0,0,.7.7h6.449v6.309c0,.421.281.7.841.7h4.066a.662.662,0,0,0,.7-.7V985.7A.662.662,0,0,0-748.043,985Z" transform="translate(760.1 -985)" fill="#046eab"/></g><g transform="translate(0 32.242)"><path d="M-782.3,1020.518h11.356c.421,0,.7-.281.7-.841v-4.066a.662.662,0,0,0-.7-.7h-6.449V1008.6c0-.421-.281-.7-.841-.7H-782.3a.662.662,0,0,0-.7.7v11.216A.662.662,0,0,0-782.3,1020.518Z" transform="translate(783 -1007.9)" fill="#046eab"/></g><g transform="translate(14.494 2.524)"><circle cx="4.346" cy="4.346" r="4.346" fill="#046eab"/></g><g transform="translate(23.646 15.765)"><circle cx="5.187" cy="5.187" r="5.187" fill="#046eab"/></g><g transform="translate(33.503 32.382)"><circle cx="4.066" cy="4.066" r="4.066" fill="#046eab"/></g><g transform="translate(17.869 30.111)"><circle cx="3.505" cy="3.505" r="3.505" fill="#046eab"/></g><g transform="translate(3.645 19.418)"><circle cx="3.505" cy="3.505" r="3.505" fill="#046eab"/></g></g></svg>