<svg xmlns="http://www.w3.org/2000/svg" width="24" height="24" viewBox="0 0 24 24"><path d="M19,24a5,5,0,0,0,5-5A5,5,0,0,1,19,24Z" fill="#fff"/><rect x="1" y="1" width="22" height="22" rx="4" fill="#fff"/><path d="M0,19a5,5,0,0,0,5,5A5,5,0,0,1,0,19Z" fill="#fff"/><path d="M5,0A5,5,0,0,0,0,5,5,5,0,0,1,5,0Z" fill="#fff"/><path d="M24,5a5,5,0,0,0-5-5A5,5,0,0,1,24,5Z" fill="#fff"/><path d="M19,0H5A5,5,0,0,0,0,5V19a5,5,0,0,0,5,5H19a5,5,0,0,0,5-5V5A5,5,0,0,0,19,0Zm4,19a4,4,0,0,1-4,4H5a4,4,0,0,1-4-4V5A4,4,0,0,1,5,1H19a4,4,0,0,1,4,4Z" fill="#e0e0e0"/></svg>