<svg xmlns="http://www.w3.org/2000/svg" width="24" height="24" viewBox="0 0 24 24"><path d="M19,24a5,5,0,0,0,5-5A5,5,0,0,1,19,24Z" fill="#fff"/><path d="M24,5a5,5,0,0,0-5-5A5,5,0,0,1,24,5Z" fill="#fff"/><path d="M5,0A5,5,0,0,0,0,5,5,5,0,0,1,5,0Z" fill="#fff"/><path d="M0,19a5,5,0,0,0,5,5A5,5,0,0,1,0,19Z" fill="#fff"/><path d="M19,0H5A5,5,0,0,0,0,5V19a5,5,0,0,0,5,5H19a5,5,0,0,0,5-5V5A5,5,0,0,0,19,0Zm4,19a4,4,0,0,1-4,4H5a4,4,0,0,1-4-4V5A4,4,0,0,1,5,1H19a4,4,0,0,1,4,4Z" fill="#e0e0e0"/><path d="M19,1H5A4,4,0,0,0,1,5V19a4,4,0,0,0,4,4H19a4,4,0,0,0,4-4V5A4,4,0,0,0,19,1ZM10.94,16.28a.75.75,0,0,1-.53.22h0a.72.72,0,0,1-.53-.23l-3.7-3.8,1.07-1,3.17,3.25,7-7,1.06,1.06Z" fill="#fff"/><path d="M10.42,14.68,7.25,11.43l-1.07,1,3.7,3.8a.72.72,0,0,0,.53.23h0a.75.75,0,0,0,.53-.22l7.5-7.5L17.38,7.72Z" fill="#6f6f6f"/></svg>