<svg xmlns="http://www.w3.org/2000/svg" width="32" height="27" viewBox="0 0 32 32"><path d="M25.32,10H6a2.5,2.5,0,0,0-2.5,2.5v7A2.5,2.5,0,0,0,6,22H25.32a2.5,2.5,0,0,0,2.5-2.5v-7A2.5,2.5,0,0,0,25.32,10Zm1,9.54a1,1,0,0,1-1,1H6a1,1,0,0,1-1-1v-7a1,1,0,0,1,1-1H25.32a1,1,0,0,1,1,1Zm4.45-2.8a2.12,2.12,0,0,1-1.53,1.53V14.11A2.14,2.14,0,0,1,30.77,16.72ZM11.49,14v4.17a1,1,0,0,1-1,1H7.9a1,1,0,0,1-1-1V14a1,1,0,0,1,1-1h2.59A1,1,0,0,1,11.49,14ZM18,14v4.17a1,1,0,0,1-1,1H14.4a1,1,0,0,1-1-1V14a1,1,0,0,1,1-1H17A1,1,0,0,1,18,14Z" fill="#33ba69"/></svg>