<svg xmlns="http://www.w3.org/2000/svg" width="32" height="32" viewBox="0 0 32 32"><path d="M13.54,18.12a1.76,1.76,0,0,1-1.32-.52,1.94,1.94,0,0,1-.51-1.41,2.11,2.11,0,0,1,.54-1.52,1.84,1.84,0,0,1,1.42-.56,1.76,1.76,0,0,1,1.34.51,2,2,0,0,1,.48,1.43A2.12,2.12,0,0,1,15,17.56,1.89,1.89,0,0,1,13.54,18.12Zm5.62-3.91-5,7.71H12.84l5-7.71Zm-5.52.84c-.52,0-.78.36-.78,1.09s.25,1,.74,1,.77-.36.77-1.07S14.12,15.05,13.64,15.05Zm4.7,7A1.76,1.76,0,0,1,17,21.5a2,2,0,0,1-.5-1.4A2.17,2.17,0,0,1,17,18.57,1.91,1.91,0,0,1,18.47,18a1.79,1.79,0,0,1,1.34.5,2,2,0,0,1,.48,1.43,2.11,2.11,0,0,1-.54,1.52A1.82,1.82,0,0,1,18.34,22ZM18.42,19c-.52,0-.78.36-.78,1.09s.26,1,.76,1,.76-.36.76-1.08a1.24,1.24,0,0,0-.2-.77A.65.65,0,0,0,18.42,19ZM16,29.32a9.62,9.62,0,0,1-8.45-4.87,10.76,10.76,0,0,1-.28-10.51,58.26,58.26,0,0,1,8-10.8A1,1,0,0,1,16,2.81h0a1.06,1.06,0,0,1,.76.35,71.31,71.31,0,0,1,8,10.72,10.4,10.4,0,0,1-.13,10.4A9.7,9.7,0,0,1,16,29.32ZM16,4.54a58.14,58.14,0,0,0-7.4,10.13,9.24,9.24,0,0,0,.26,9A8.14,8.14,0,0,0,16,27.82a8.23,8.23,0,0,0,7.28-4.28,9.06,9.06,0,0,0,.14-8.9A70.41,70.41,0,0,0,16,4.54Z" fill="#33ba69"/></svg>