<svg xmlns="http://www.w3.org/2000/svg" width="32" height="32" viewBox="0 0 32 32"><path d="M25.75,4.37H23.5V2.12H22V4.37H10V2.12H8.5V4.37H6.13A3.7,3.7,0,0,0,2.5,8.12V26.25a3.71,3.71,0,0,0,3.68,3.63H25.75a3.76,3.76,0,0,0,3.75-3.75V8A3.71,3.71,0,0,0,25.75,4.37ZM6.25,5.87H8.5V7.42H10V5.87H22V7.42h1.5V5.87h2.31A2.22,2.22,0,0,1,28,8.12v2.25H4V8.11A2.23,2.23,0,0,1,6.25,5.87Zm19.5,22.5H6.19A2.22,2.22,0,0,1,4,26.12V11.87H28V26.12A2.25,2.25,0,0,1,25.75,28.37ZM11,13.71a1.53,1.53,0,0,1,.47,1.08v3A1.54,1.54,0,0,1,10,19.37H6.93A1.54,1.54,0,0,1,5.4,17.86v-3a1.51,1.51,0,0,1,.44-1.08,1.56,1.56,0,0,1,1.08-.47h3A1.45,1.45,0,0,1,11,13.71Zm7.5,0A1.53,1.53,0,0,1,19,14.79v3a1.54,1.54,0,0,1-1.52,1.55H14.43a1.54,1.54,0,0,1-1.53-1.51v-3a1.51,1.51,0,0,1,.44-1.08,1.56,1.56,0,0,1,1.08-.47h3A1.46,1.46,0,0,1,18.53,13.71Zm7.5,0a1.53,1.53,0,0,1,.47,1.08v3A1.54,1.54,0,0,1,25,19.37H21.93a1.54,1.54,0,0,1-1.53-1.51v-3a1.51,1.51,0,0,1,.44-1.08,1.56,1.56,0,0,1,1.08-.47h3A1.48,1.48,0,0,1,26,13.71Zm-15,7.5a1.53,1.53,0,0,1,.47,1.08v3A1.54,1.54,0,0,1,10,26.87H6.93A1.54,1.54,0,0,1,5.4,25.36v-3a1.51,1.51,0,0,1,.44-1.08,1.56,1.56,0,0,1,1.08-.47h3A1.62,1.62,0,0,1,11,21.21Zm6.42-.44h-3a1.56,1.56,0,0,0-1.08.47,1.51,1.51,0,0,0-.44,1.08v3a1.54,1.54,0,0,0,1.53,1.51h3.05A1.54,1.54,0,0,0,19,25.32v-3a1.53,1.53,0,0,0-.47-1.08A1.64,1.64,0,0,0,17.45,20.77Zm0,4.6-3.07-.05,0-3.05,3.05.05ZM25,20.77h-3a1.56,1.56,0,0,0-1.08.47,1.51,1.51,0,0,0-.44,1.08v3a1.54,1.54,0,0,0,1.53,1.51H25a1.54,1.54,0,0,0,1.52-1.55v-3A1.53,1.53,0,0,0,26,21.21,1.66,1.66,0,0,0,25,20.77Zm0,4.6-3.07-.05L22,22.27l3.05.05Z" fill="#33ba69"/></svg>