<svg xmlns="http://www.w3.org/2000/svg" width="32" height="32" viewBox="0 0 32 32"><path d="M26.09,9.6l1.08,1.08,1.06-1.06L25,6.42,24,7.48,25,8.54l-1.68,1.61a11.21,11.21,0,0,0-6.6-2.71V6.7h.78a1.51,1.51,0,0,0,1.08-.47,1.48,1.48,0,0,0,.44-1.08V3.62a1.51,1.51,0,0,0-.47-1.08A1.37,1.37,0,0,0,17.5,2.1h-3A1.6,1.6,0,0,0,13,3.5s0,.1,0,.15V5.18a1.51,1.51,0,0,0,.47,1.08,1.49,1.49,0,0,0,1.06.44h.77v.74a11.26,11.26,0,1,0,9.17,3.77ZM14.45,5.15V3.65h3.1L17.5,5.2Zm11.3,13.5A9.75,9.75,0,1,1,16,8.9,9.76,9.76,0,0,1,25.75,18.65Zm-7.87,0a1.88,1.88,0,1,1-2.63-1.72V11.85h1.5v5.08A1.88,1.88,0,0,1,17.88,18.65Z" fill="#33ba69"/></svg>