<svg xmlns="http://www.w3.org/2000/svg" width="50" height="45.559" viewBox="0 0 50 45.559"><g transform="translate(0 0)"><path d="M44,50H6a6,6,0,0,1-6-6V8H50V44A6,6,0,0,1,44,50Z" transform="translate(0 -4.441)" fill="#19457a"/><path d="M41.45,37a5.955,5.955,0,0,1-5.038-2.326.489.489,0,0,0-.827,0A6.028,6.028,0,0,1,30.5,37a6.028,6.028,0,0,1-5.087-2.331.488.488,0,0,0-.826,0A6.028,6.028,0,0,1,19.5,37a6.028,6.028,0,0,1-5.082-2.324.489.489,0,0,0-.828,0A5.889,5.889,0,0,1,8.6,37a6.669,6.669,0,0,1-3.831-1.133A.5.5,0,0,0,4,36.288V46H46V35.287A6.371,6.371,0,0,1,41.45,37Z" transform="translate(0 -4.441)" fill="#046eab"/><path d="M41.45,37a5.955,5.955,0,0,1-5.038-2.326.489.489,0,0,0-.827,0A6.028,6.028,0,0,1,30.5,37a6.028,6.028,0,0,1-5.087-2.331.488.488,0,0,0-.826,0A6.028,6.028,0,0,1,19.5,37a6.028,6.028,0,0,1-5.082-2.324.489.489,0,0,0-.828,0A5.889,5.889,0,0,1,8.6,37a6.669,6.669,0,0,1-3.831-1.133A.5.5,0,0,0,4,36.288v1.9A6.216,6.216,0,0,0,8.6,40c2.687,0,4.92-1.4,5.4-3.254C14.49,38.6,16.764,40,19.5,40s5.013-1.4,5.5-3.258C25.487,38.6,27.762,40,30.5,40s5.011-1.4,5.5-3.256C36.484,38.6,38.738,40,41.45,40A6.369,6.369,0,0,0,46,38.287v-3A6.371,6.371,0,0,1,41.45,37Z" transform="translate(0 -4.441)" fill="#fff" opacity="0.2"/><path d="M41.45,7a5.955,5.955,0,0,1-5.038-2.326.489.489,0,0,0-.827,0A6.028,6.028,0,0,1,30.5,7a6.028,6.028,0,0,1-5.087-2.331.488.488,0,0,0-.826,0A6.028,6.028,0,0,1,19.5,7a6.028,6.028,0,0,1-5.082-2.324.489.489,0,0,0-.828,0A5.889,5.889,0,0,1,8.6,7,6.669,6.669,0,0,1,4.769,5.867.5.5,0,0,0,4,6.288V16H46V6.349a.5.5,0,0,0-.762-.428A6.813,6.813,0,0,1,41.45,7Z" transform="translate(0 -4.441)" fill="#59b4d9"/><path d="M41.45,22a5.955,5.955,0,0,1-5.038-2.326.489.489,0,0,0-.827,0A6.028,6.028,0,0,1,30.5,22a6.028,6.028,0,0,1-5.087-2.331.488.488,0,0,0-.826,0A6.028,6.028,0,0,1,19.5,22a6.028,6.028,0,0,1-5.082-2.324.489.489,0,0,0-.828,0A5.889,5.889,0,0,1,8.6,22a6.669,6.669,0,0,1-3.831-1.133A.5.5,0,0,0,4,21.288V31H46V20.287A6.371,6.371,0,0,1,41.45,22Z" transform="translate(0 -4.441)" fill="#1590cf"/><path d="M41.45,22a5.955,5.955,0,0,1-5.038-2.326.489.489,0,0,0-.827,0A6.028,6.028,0,0,1,30.5,22a6.028,6.028,0,0,1-5.087-2.331.488.488,0,0,0-.826,0A6.028,6.028,0,0,1,19.5,22a6.028,6.028,0,0,1-5.082-2.324.489.489,0,0,0-.828,0A5.889,5.889,0,0,1,8.6,22a6.669,6.669,0,0,1-3.831-1.133A.5.5,0,0,0,4,21.288v1.9A6.216,6.216,0,0,0,8.6,25c2.687,0,4.92-1.4,5.4-3.254C14.49,23.6,16.764,25,19.5,25s5.013-1.4,5.5-3.258C25.487,23.6,27.762,25,30.5,25s5.011-1.4,5.5-3.256C36.484,23.6,38.738,25,41.45,25A6.369,6.369,0,0,0,46,23.287v-3A6.371,6.371,0,0,1,41.45,22Z" transform="translate(0 -4.441)" fill="#fff" opacity="0.2"/></g></svg>