<svg xmlns="http://www.w3.org/2000/svg" width="20" height="20" viewBox="0 0 20 20"><path d="M19,6a5,5,0,0,0-5-5A5,5,0,0,1,19,6Z" fill="#1590cf"/><path d="M1,14a5,5,0,0,0,5,5A5,5,0,0,1,1,14Z" fill="#1590cf"/><path d="M6,1A5,5,0,0,0,1,6,5,5,0,0,1,6,1Z" fill="#1590cf"/><path d="M14,2H6A4,4,0,0,0,2,6v8a4,4,0,0,0,4,4h8a4,4,0,0,0,4-4V6A4,4,0,0,0,14,2ZM9.4,13.37a.71.71,0,0,1-.53.22h0a.75.75,0,0,1-.53-.22L5.53,10.49,6.61,9.44l2.27,2.34L14,6.63l1.06,1.06Z" fill="#1590cf"/><path d="M14,19a5,5,0,0,0,5-5A5,5,0,0,1,14,19Z" fill="#1590cf"/><path d="M14,1H6A5,5,0,0,0,1,6v8a5,5,0,0,0,5,5h8a5,5,0,0,0,5-5V6A5,5,0,0,0,14,1Zm4,13a4,4,0,0,1-4,4H6a4,4,0,0,1-4-4V6A4,4,0,0,1,6,2h8a4,4,0,0,1,4,4Z" fill="#e0e0e0"/><path d="M8.88,11.78,6.61,9.44,5.53,10.49l2.81,2.88a.75.75,0,0,0,.53.22h0a.71.71,0,0,0,.53-.22l5.69-5.68L14,6.63Z" fill="#fff"/></svg>