<svg xmlns="http://www.w3.org/2000/svg" width="20" height="20" viewBox="0 0 20 20"><path d="M14,19a5,5,0,0,0,5-5A5,5,0,0,1,14,19Z" fill="#fff"/><rect x="2" y="2" width="16" height="16" rx="4" fill="#fff"/><path d="M19,6a5,5,0,0,0-5-5A5,5,0,0,1,19,6Z" fill="#fff"/><path d="M1,14a5,5,0,0,0,5,5A5,5,0,0,1,1,14Z" fill="#fff"/><path d="M6,1A5,5,0,0,0,1,6,5,5,0,0,1,6,1Z" fill="#fff"/><path d="M14,1H6A5,5,0,0,0,1,6v8a5,5,0,0,0,5,5h8a5,5,0,0,0,5-5V6A5,5,0,0,0,14,1Zm4,13a4,4,0,0,1-4,4H6a4,4,0,0,1-4-4V6A4,4,0,0,1,6,2h8a4,4,0,0,1,4,4Z" fill="#e0e0e0"/></svg>