<svg xmlns="http://www.w3.org/2000/svg" width="55" height="50.682" viewBox="0 0 55 50.682"><path d="M60.8,29.686a1.554,1.554,0,0,0,0-1.976l-2.663-2.663L46.284,13.537a1.347,1.347,0,0,0-1.89,0h0a1.307,1.307,0,0,0,0,1.976L56.85,27.71a1.456,1.456,0,0,1,0,1.976L44.137,42.314a1.456,1.456,0,0,0,0,1.976h0a1.436,1.436,0,0,0,1.89,0L57.795,32.607l.086-.086Z" transform="translate(-6.157 -4.002)" fill="#046eab"/><path d="M.342,29.686a1.554,1.554,0,0,1,0-1.976L3,25.047,14.859,13.537a1.347,1.347,0,0,1,1.89,0h0a1.307,1.307,0,0,1,0,1.976l-12.2,12.2a1.456,1.456,0,0,0,0,1.976L17.007,42.314a1.456,1.456,0,0,1,0,1.976h0a1.436,1.436,0,0,1-1.89,0L3.091,32.779,3,32.693Z" transform="translate(0.013 -4.002)" fill="#046eab"/><path d="M43.371,2.5H26.62L17.6,27.927l11,.086-8.59,25.169L43.714,19.594H32.2Z" transform="translate(-2.47 -2.5)" fill="#1590cf"/><path d="M32.6,19.594,43.765,2.5H35L25.726,23.632l11,.086L20.4,53.182,44.109,19.594Z" transform="translate(-2.865 -2.5)" fill="#046eab"/></svg>