<svg xmlns="http://www.w3.org/2000/svg" width="32" height="32" viewBox="0 0 32 32"><path d="M23.09,26.89H9.61A7.87,7.87,0,0,1,7.76,11.38,8.56,8.56,0,0,1,24.52,12.7a7.15,7.15,0,0,1,5.73,7.05h0A7.18,7.18,0,0,1,23.09,26.89ZM16,6.61h-.3a7.07,7.07,0,0,0-6.61,5.56L9,12.67l-.49.09a6.36,6.36,0,0,0,1.1,12.63H23.08a5.67,5.67,0,0,0,.65-11.3L23.09,14l0-.64A7.08,7.08,0,0,0,16,6.61Zm-3.29,14.6a4.58,4.58,0,0,1-2,.37,3.39,3.39,0,0,1-2.54-.95,3.47,3.47,0,0,1-.92-2.52,3.69,3.69,0,0,1,1-2.73,3.65,3.65,0,0,1,2.69-1,4.89,4.89,0,0,1,1.73.26v1.52a3.08,3.08,0,0,0-1.6-.42,2.12,2.12,0,0,0-1.6.62A2.3,2.3,0,0,0,8.93,18a2.25,2.25,0,0,0,.57,1.61,2,2,0,0,0,1.54.61,3.29,3.29,0,0,0,1.69-.45Zm4.05.37a3.28,3.28,0,0,1-2.45-1,3.51,3.51,0,0,1-.94-2.55,3.79,3.79,0,0,1,1-2.69,3.34,3.34,0,0,1,2.55-1,3.19,3.19,0,0,1,2.42,1,3.61,3.61,0,0,1,.93,2.59,3.7,3.7,0,0,1-1,2.66A3.32,3.32,0,0,1,16.78,21.58Zm.07-5.88a1.59,1.59,0,0,0-1.32.62A2.61,2.61,0,0,0,15.05,18a2.56,2.56,0,0,0,.48,1.64,1.57,1.57,0,0,0,1.28.61,1.59,1.59,0,0,0,1.3-.59A2.51,2.51,0,0,0,18.59,18a2.75,2.75,0,0,0-.47-1.7A1.52,1.52,0,0,0,16.85,15.7Zm7,7.22H20.71v-.43a1.31,1.31,0,0,1,.14-.64,1.72,1.72,0,0,1,.34-.49,3.41,3.41,0,0,1,.45-.39l.44-.35a1.9,1.9,0,0,0,.34-.36.65.65,0,0,0,.14-.43.39.39,0,0,0-.14-.33.61.61,0,0,0-.39-.12l-.27,0a1.71,1.71,0,0,0-.3.09l-.28.13a.84.84,0,0,0-.23.18v-1a2,2,0,0,1,.62-.27,2.84,2.84,0,0,1,.66-.08,1.87,1.87,0,0,1,.59.09,1.37,1.37,0,0,1,.48.25,1.21,1.21,0,0,1,.32.42,1.26,1.26,0,0,1,.12.57,1.13,1.13,0,0,1-.13.54,2.56,2.56,0,0,1-.33.48,3.33,3.33,0,0,1-.42.42c-.15.12-.29.24-.42.33l-.32.26C22,21.89,22,22,22,22v0H23.8Z" fill="#33ba69"/></svg>