<svg xmlns="http://www.w3.org/2000/svg" width="50" height="50.051" viewBox="0 0 50 50.051"><path d="M29.394,47.51a2.54,2.54,0,0,1-2.541,2.541H2.541A2.54,2.54,0,0,1,0,47.51V2.541A2.54,2.54,0,0,1,2.541,0H26.853a2.54,2.54,0,0,1,2.541,2.541Z" fill="#046eab"/><path d="M4.316,27.027A3.2,3.2,0,0,1,7.51,23.833H22.139a3.2,3.2,0,0,1,3.194,3.194h0a3.2,3.2,0,0,1-3.194,3.194H7.51a3.194,3.194,0,0,1-3.194-3.194Z" transform="translate(0.004 0.024)" fill="#19457a"/><circle cx="2.144" cy="2.144" r="2.144" transform="translate(5.507 24.907)" fill="#59b4d9"/><path d="M4.316,17.548A3.2,3.2,0,0,1,7.51,14.354H22.139a3.2,3.2,0,0,1,3.194,3.194h0a3.2,3.2,0,0,1-3.194,3.194H7.51a3.2,3.2,0,0,1-3.194-3.194Z" transform="translate(0.004 0.015)" fill="#19457a"/><circle cx="2.144" cy="2.144" r="2.144" transform="translate(5.507 15.419)" fill="#59b4d9"/><path d="M4.316,8.068A3.2,3.2,0,0,1,7.51,4.874H22.139a3.2,3.2,0,0,1,3.194,3.194h0a3.2,3.2,0,0,1-3.194,3.194H7.51A3.193,3.193,0,0,1,4.316,8.068Z" transform="translate(0.004 0.005)" fill="#19457a"/><circle cx="2.144" cy="2.144" r="2.144" transform="translate(5.507 5.929)" fill="#59b4d9"/><path d="M49.989,45.394a4.609,4.609,0,0,0-4.59-4.631,4.079,4.079,0,0,0-.56.04,12.529,12.529,0,0,0,.434-3.264,12.227,12.227,0,0,0-23.845-3.922,8.214,8.214,0,0,0-2.733-.471,8.44,8.44,0,0,0,0,16.88l.012,0v0H45.772L45.767,50a4.607,4.607,0,0,0,4.222-4.609" transform="translate(0.011 0.025)" fill="#1590cf"/><path d="M23.141,50.025a8.446,8.446,0,0,1,3.985-14.217,8.216,8.216,0,0,1,2.769-.149,12.293,12.293,0,0,1,6.855-9.882,12.192,12.192,0,0,0-15.322,7.838,8.21,8.21,0,0,0-2.733-.471,8.44,8.44,0,0,0,0,16.88.05.05,0,0,1,.012,0v0Z" transform="translate(0.011 0.025)" fill="#fff" opacity="0.2"/></svg>