<svg xmlns="http://www.w3.org/2000/svg" width="26.49" height="26.39" viewBox="0 0 26.49 26.39"><path d="M8.26,26.39a8.24,8.24,0,0,1-5.63-2.22,8.26,8.26,0,0,1-.42-11.66c.14-.14.27-.28.42-.41A8.38,8.38,0,0,1,11,10.18l10-10A.75.75,0,0,1,21.54,0h4.2a.76.76,0,0,1,.75.75V5a.75.75,0,0,1-.22.53l-1.9,1.9a.75.75,0,0,1-.53.22H21.39v2.45a.76.76,0,0,1-.75.75H18.19v2.45a.75.75,0,0,1-.22.53l-1.66,1.66a8,8,0,0,1-2,8.35A8.2,8.2,0,0,1,8.26,26.39Zm.18-15.12a6.87,6.87,0,0,0-4.78,1.92l-.35.34a6.75,6.75,0,1,0,9.88,9.21,6.52,6.52,0,0,0,1.55-7.21.74.74,0,0,1,.17-.81l1.78-1.78V10.05a.75.75,0,0,1,.75-.75h2.45V6.85a.75.75,0,0,1,.75-.75h2.89L25,4.64V1.5H21.85L11.77,11.58a.76.76,0,0,1-.81.17A6.71,6.71,0,0,0,8.44,11.27Zm.1,9.79a3,3,0,0,1-2.13-5.14A3,3,0,0,1,8.5,15h0a3,3,0,0,1,2.08.85l.05.05a3,3,0,0,1-2.13,5.14Zm0-4.54h0a1.49,1.49,0,0,0-1,.45,1.51,1.51,0,1,0,2.13,0l0,0,.54-.52L9.58,17A1.45,1.45,0,0,0,8.54,16.52Z"/></svg>