<svg xmlns="http://www.w3.org/2000/svg" width="50" height="49.9" viewBox="0 0 50 49.9"><path d="M13.7,27.8v5.4L1,22.4H50V6.2A6.325,6.325,0,0,0,43.4,0H6.3C2.6,0,0,2.2,0,5.9v5.9H36.6V6.4L49.3,17.2H0V32.1c0,3.7,2.7,7,6.3,7H19.7l11,10.8.1-10.8H43.3A6.616,6.616,0,0,0,50,32.5V27.7H13.7Z" fill="#046eab"/><path d="M6.3,39.2H16l5.7-11.3H13.6v5.4L1,22.4H24.3l2.8-5.2H0V32.1C0,35.8,2.7,39.1,6.3,39.2Z" transform="translate(0 0)" fill="#1590cf"/><path d="M35.6,0H6.3C2.6,0,0,2.2,0,5.9v5.9H29.7Z" fill="#1590cf"/></svg>