<svg xmlns="http://www.w3.org/2000/svg" width="32" height="32" viewBox="0 0 32 32"><path d="M18.46,3.15a1.48,1.48,0,0,1,.48,1.06V27.73a1.54,1.54,0,0,1-1.54,1.53h0a1.49,1.49,0,0,1-1-.36L9.08,22.18a.53.53,0,0,0-.45-.2H6.19A3,3,0,0,1,3.24,19V13a3,3,0,0,1,2.94-2.95H8.59A.6.6,0,0,0,9,9.91l7.34-6.74A1.49,1.49,0,0,1,18.46,3.15Zm-1,1.09h0L10.09,11a2,2,0,0,1-1.54.6H6.19A1.46,1.46,0,0,0,4.74,13v6a1.47,1.47,0,0,0,1.45,1.45h2.5a2,2,0,0,1,1.44.64l7.26,6.66Zm4.31,5.29a.75.75,0,0,0-1.13,1,8.4,8.4,0,0,1,0,11,.76.76,0,0,0,.07,1.06.74.74,0,0,0,1.06-.07A9.92,9.92,0,0,0,21.75,9.53Zm3-3.72a.75.75,0,0,0-1.06,0,.75.75,0,0,0,0,1.06,13.5,13.5,0,0,1,0,18.37.75.75,0,0,0,0,1.06.71.71,0,0,0,.51.21.75.75,0,0,0,.55-.24A15,15,0,0,0,24.74,5.81Z" fill="#33ba69"/></svg>