<svg xmlns="http://www.w3.org/2000/svg" width="27" height="27.1" viewBox="0 0 27 27.1"><path d="M21.75,16.6a5.23,5.23,0,0,0-4.28,2.23L10.2,15.24a5.32,5.32,0,0,0,.3-1.69,5.21,5.21,0,0,0-.3-1.68l7.27-3.59a5.24,5.24,0,1,0-1-3,5.21,5.21,0,0,0,.3,1.68l-7.27,3.6a5.25,5.25,0,1,0,0,6l7.27,3.59A5.24,5.24,0,1,0,27,21.85,5.26,5.26,0,0,0,21.75,16.6Zm0-15.1A3.75,3.75,0,1,1,18,5.25,3.75,3.75,0,0,1,21.75,1.5ZM5.25,17.3A3.75,3.75,0,1,1,9,13.55,3.75,3.75,0,0,1,5.25,17.3Zm16.5,8.3a3.75,3.75,0,1,1,3.75-3.75A3.75,3.75,0,0,1,21.75,25.6Z"/></svg>