<svg xmlns="http://www.w3.org/2000/svg" width="32" height="32" viewBox="0 0 32 32"><path d="M17.35,7A2.94,2.94,0,0,1,17,2.88a2.84,2.84,0,0,1,2-1,2.93,2.93,0,0,1,2.15.67,2.88,2.88,0,0,1,1,2,2.9,2.9,0,0,1-.68,2.15,3,3,0,0,1-2.26,1A2.89,2.89,0,0,1,17.35,7ZM17.8,4.9a1.45,1.45,0,1,0,2.38-1.24h0a1.46,1.46,0,0,0-.93-.34h-.13a1.41,1.41,0,0,0-1,.51A1.46,1.46,0,0,0,17.8,4.9Zm5.86,9.57L20.23,16a1.55,1.55,0,0,1-.63.13,1.59,1.59,0,0,1-.92-.29L17.14,15l-.51,1,0,0,3.42,4a2.32,2.32,0,0,1,.45,2.27l-1.47,6A2.56,2.56,0,0,1,17.75,30a1.84,1.84,0,0,1-.77.17A2.48,2.48,0,0,1,16,30c-.86-.27-1.3-1.23-1.15-2.54l-3.49,2-.16.08a1.78,1.78,0,0,1-.71.15,1.64,1.64,0,0,1-.65-.13,1.74,1.74,0,0,1-1-.94,2,2,0,0,1,.34-2.39l2.85-2.82-.71-4.84-.43-.37a1.4,1.4,0,0,1-.53-1,1.42,1.42,0,0,1,.27-1L12.42,13l-2.68.78a.35.35,0,0,1-.11,0,2.08,2.08,0,0,1-1.8-.7A1.62,1.62,0,0,1,8,10.85L8,10.78c.09-.07,2.24-1.72,3.22-2.29a1.53,1.53,0,0,1,1.24-.12,23,23,0,0,0,2.37.52,2.44,2.44,0,0,1,2.27-.27,2.66,2.66,0,0,1,1.69,2.21l1.29,1,2.64-.58h.1a1.71,1.71,0,0,1,1.59,1.22A1.6,1.6,0,0,1,23.66,14.47Zm-8.8,11,0-3.6a16.89,16.89,0,0,0-1.7-1.21l.37,2.51a1.23,1.23,0,0,1-.36,1.17l-2.92,2.88a.55.55,0,0,0-.06.66c.08.17.15.21.19.23a.31.31,0,0,0,.21,0l4.07-2.29A.43.43,0,0,0,14.86,25.47ZM15.51,17a1.56,1.56,0,0,1-.39-1.29.88.88,0,0,1,.07-.23l1-1.86a11,11,0,0,1,1.14-2.24l0-.08A1.17,1.17,0,0,0,16.6,10a.94.94,0,0,0-1,.17c-.28.23-.51.43-3.56-.38A29.36,29.36,0,0,0,9,11.93a.22.22,0,0,0-.06.16.64.64,0,0,0,.43.22h0l2.71-.8a1.09,1.09,0,0,1,.36-.06,2.75,2.75,0,0,1,1,.25l.33.14a.76.76,0,0,1,.38,1.05L12,16.94a.38.38,0,0,1-.09.13l4.25,3.47a1.33,1.33,0,0,1,.53,1.32l-.27,5.5c-.1.66,0,1.14.16,1.2a.79.79,0,0,0,.58.09,1.27,1.27,0,0,0,.49-.74l1.46-6a.85.85,0,0,0-.14-.87h0Zm7.56-4c-.07-.18-.14-.24-.21-.25l-2.63.57a1,1,0,0,1-1-.32l-.76-.59-.63,1.23,1.72.95L23,13.13Z" fill="#33ba69"/></svg>