<svg xmlns="http://www.w3.org/2000/svg" width="28.7" height="28.7" viewBox="0 0 28.7 28.7"><path d="M28.7,13.49a2.17,2.17,0,0,0-2-2.28L24.43,11a8.19,8.19,0,0,0-.57-1.33l1.48-1.81a2.29,2.29,0,0,0-.16-3L23.87,3.51a2.28,2.28,0,0,0-3-.14L19.07,4.85a9.13,9.13,0,0,0-1.33-.56L17.49,2A2.27,2.27,0,0,0,15.25,0H13.49a2.18,2.18,0,0,0-2.28,2L11,4.28a9.13,9.13,0,0,0-1.33.56L7.82,3.36a2.3,2.3,0,0,0-3,.16L3.51,4.83a2.28,2.28,0,0,0-.14,3L4.85,9.64A8.57,8.57,0,0,0,4.29,11L2,11.21A2.28,2.28,0,0,0,0,13.45v1.76A2.18,2.18,0,0,0,2,17.5l2.31.24a9.25,9.25,0,0,0,.56,1.34L3.36,20.89a2.27,2.27,0,0,0,.16,3l1.31,1.31a2.28,2.28,0,0,0,3,.14l1.81-1.48a9.73,9.73,0,0,0,1.32.57l.25,2.34a2.27,2.27,0,0,0,2.24,1.94h1.88a2.18,2.18,0,0,0,2.17-2l.24-2.3a8.3,8.3,0,0,0,1.34-.57l1.81,1.48a2.27,2.27,0,0,0,3-.16l1.31-1.31a2.27,2.27,0,0,0,.14-3l-1.48-1.81a11,11,0,0,0,.57-1.32l2.34-.26a2.26,2.26,0,0,0,1.94-2.24Zm-1.5,1.76a.77.77,0,0,1-.63.76l-2.8.3a.75.75,0,0,0-.64.53,8.11,8.11,0,0,1-.83,1.94.76.76,0,0,0,.07.85l1.79,2.19a.76.76,0,0,1,0,1l-1.29,1.29a.76.76,0,0,1-1,.06l-2.2-1.8a.77.77,0,0,0-.87-.06,7,7,0,0,1-1.9.82.74.74,0,0,0-.55.64L16,26.58a.68.68,0,0,1-.75.62h-1.8a.76.76,0,0,1-.75-.63l-.3-2.8a.78.78,0,0,0-.54-.64,8.46,8.46,0,0,1-1.93-.83.76.76,0,0,0-.85.07L6.89,24.16a.77.77,0,0,1-1,0L4.59,22.83a.76.76,0,0,1-.06-1l1.8-2.2a.74.74,0,0,0,.06-.87,6.94,6.94,0,0,1-.81-1.9.75.75,0,0,0-.65-.55L2.12,16a.68.68,0,0,1-.62-.75v-1.8a.76.76,0,0,1,.63-.75l2.8-.3a.75.75,0,0,0,.64-.54A8.92,8.92,0,0,1,6.4,9.93a.74.74,0,0,0-.07-.85L4.54,6.89a.77.77,0,0,1,0-1L5.87,4.59a.78.78,0,0,1,1-.06l2.2,1.8a.74.74,0,0,0,.86.06,7.21,7.21,0,0,1,1.9-.81.77.77,0,0,0,.56-.65l.3-2.81a.69.69,0,0,1,.75-.62h1.8a.77.77,0,0,1,.76.63l.3,2.8a.74.74,0,0,0,.53.64,9.45,9.45,0,0,1,1.94.83.74.74,0,0,0,.85-.07l2.19-1.79a.76.76,0,0,1,1,0l1.29,1.29a.78.78,0,0,1,.06,1l-1.8,2.2a.77.77,0,0,0-.06.87,7,7,0,0,1,.82,1.89.75.75,0,0,0,.64.56l2.81.3a.69.69,0,0,1,.62.75ZM14.25,9.1a5.25,5.25,0,1,0,5.25,5.25A5.26,5.26,0,0,0,14.25,9.1Zm0,9A3.75,3.75,0,1,1,18,14.35,3.75,3.75,0,0,1,14.25,18.1Z"/></svg>